{
  "accessors": [
    {
      "bufferView": 2,
      "componentType": 5126,
      "count": 58488,
      "max": [
        1.4980969429016113,
        4.161150932312012,
        2.4929027557373047
      ],
      "min": [
        -2.53425669670105,
        -4.397815704345703,
        -2.63936185836792
      ],
      "type": "VEC3"
    },
    {
      "bufferView": 2,
      "byteOffset": 701856,
      "componentType": 5126,
      "count": 58488,
      "max": [
        0.9999989867210388,
        0.9999663829803467,
        0.9998908638954163
      ],
      "min": [
        -0.9996080994606018,
        -0.9999971985816956,
        -0.9999738335609436
      ],
      "type": "VEC3"
    },
    {
      "bufferView": 1,
      "componentType": 5126,
      "count": 58488,
      "max": [
        0.9969557523727417,
        0.9999685287475586
      ],
      "min": [
        3.6454759538173676e-05,
        6.359629333019257e-05
      ],
      "type": "VEC2"
    },
    {
      "bufferView": 1,
      "byteOffset": 467904,
      "componentType": 5126,
      "count": 58488,
      "max": [
        0.9969557523727417,
        0.9999685287475586
      ],
      "min": [
        3.6454759538173676e-05,
        6.359629333019257e-05
      ],
      "type": "VEC2"
    },
    {
      "bufferView": 0,
      "componentType": 5125,
      "count": 307455,
      "type": "SCALAR"
    },
    {
      "bufferView": 2,
      "byteOffset": 1403712,
      "componentType": 5126,
      "count": 55793,
      "max": [
        1.5957303047180176,
        4.153848648071289,
        2.4527220726013184
      ],
      "min": [
        -2.511644124984741,
        -4.108527183532715,
        -2.6071724891662598
      ],
      "type": "VEC3"
    },
    {
      "bufferView": 2,
      "byteOffset": 2073228,
      "componentType": 5126,
      "count": 55793,
      "max": [
        0.9999697208404541,
        0.9999165534973145,
        0.9999356865882874
      ],
      "min": [
        -0.9998412728309631,
        -0.9999674558639526,
        -0.9998393058776855
      ],
      "type": "VEC3"
    },
    {
      "bufferView": 1,
      "byteOffset": 935808,
      "componentType": 5126,
      "count": 55793,
      "max": [
        0.9980242252349854,
        0.9999645352363586
      ],
      "min": [
        3.721565008163452e-05,
        1.648440957069397e-06
      ],
      "type": "VEC2"
    },
    {
      "bufferView": 1,
      "byteOffset": 1382152,
      "componentType": 5126,
      "count": 55793,
      "max": [
        0.9980242252349854,
        0.9999645352363586
      ],
      "min": [
        3.721565008163452e-05,
        1.648440957069397e-06
      ],
      "type": "VEC2"
    },
    {
      "bufferView": 0,
      "byteOffset": 1229820,
      "componentType": 5125,
      "count": 291642,
      "type": "SCALAR"
    }
  ],
  "asset": {
    "extras": {
      "author": "axonite (https://sketchfab.com/axonite)",
      "license": "CC-BY-4.0 (http://creativecommons.org/licenses/by/4.0/)",
      "source": "https://sketchfab.com/3d-models/small-cobblestone-paving-cubes-pile-free-34772ddd60af42398b404f926d93217a",
      "title": "Small cobblestone paving cubes pile free"
    },
    "generator": "Sketchfab-16.3.0",
    "version": "2.0"
  },
  "bufferViews": [
    {
      "buffer": 0,
      "byteLength": 2396388,
      "name": "floatBufferViews",
      "target": 34963
    },
    {
      "buffer": 0,
      "byteLength": 1828496,
      "byteOffset": 2396388,
      "byteStride": 8,
      "name": "floatBufferViews",
      "target": 34962
    },
    {
      "buffer": 0,
      "byteLength": 2742744,
      "byteOffset": 4224884,
      "byteStride": 12,
      "name": "floatBufferViews",
      "target": 34962
    }
  ],
  "buffers": [
    {
      "byteLength": 6967628,
      "uri": "scene.bin"
    }
  ],
  "extensionsUsed": [
    "KHR_materials_unlit"
  ],
  "images": [
    {
      "uri": "textures/material1_baseColor.jpeg"
    },
    {
      "uri": "textures/material0_baseColor.jpeg"
    }
  ],
  "materials": [
    {
      "doubleSided": true,
      "extensions": {
        "KHR_materials_unlit": {}
      },
      "name": "material1",
      "pbrMetallicRoughness": {
        "baseColorTexture": {
          "index": 0
        },
        "metallicFactor": 0.0
      }
    },
    {
      "doubleSided": true,
      "extensions": {
        "KHR_materials_unlit": {}
      },
      "name": "material0",
      "pbrMetallicRoughness": {
        "baseColorTexture": {
          "index": 1
        },
        "metallicFactor": 0.0
      }
    }
  ],
  "meshes": [
    {
      "name": "Model_material1_0",
      "primitives": [
        {
          "attributes": {
            "NORMAL": 1,
            "POSITION": 0,
            "TEXCOORD_0": 2,
            "TEXCOORD_1": 3
          },
          "indices": 4,
          "material": 0,
          "mode": 4
        }
      ]
    },
    {
      "name": "Model_material0_0",
      "primitives": [
        {
          "attributes": {
            "NORMAL": 6,
            "POSITION": 5,
            "TEXCOORD_0": 7,
            "TEXCOORD_1": 8
          },
          "indices": 9,
          "material": 1,
          "mode": 4
        }
      ]
    }
  ],
  "nodes": [
    {
      "children": [
        1
      ],
      "matrix": [
        0.9988909363746643,
        -0.0470845028758049,
        -1.0400649730525325e-17,
        0.0,
        0.0006755165522918105,
        0.01433098502457164,
        -0.9998970627784729,
        0.0,
        0.0470796599984169,
        0.9987881183624268,
        0.014346897602081521,
        0.0,
        0.0,
        0.0,
        0.0,
        1.0
      ],
      "name": "Sketchfab_model"
    },
    {
      "children": [
        2
      ],
      "matrix": [
        0.009999999776482582,
        0.0,
        0.0,
        0.0,
        0.0,
        0.0,
        0.009999999776482582,
        0.0,
        0.0,
        -0.009999999776482582,
        0.0,
        0.0,
        0.0,
        0.0,
        0.0,
        1.0
      ],
      "name": "small-cubes.fbx"
    },
    {
      "children": [
        3
      ],
      "name": "RootNode"
    },
    {
      "children": [
        4,
        5
      ],
      "matrix": [
        54.65228188840076,
        83.70086966090227,
        2.7004633675414667,
        0.0,
        20.70813950675966,
        -10.382764035720138,
        -97.27986003869013,
        0.0,
        -81.14370611796929,
        53.72487905046609,
        -23.007310326359985,
        0.0,
        0.0,
        0.0,
        0.0,
        1.0
      ],
      "name": "Model"
    },
    {
      "mesh": 0,
      "name": "Model_material1_0"
    },
    {
      "mesh": 1,
      "name": "Model_material0_0"
    }
  ],
  "samplers": [
    {
      "magFilter": 9729,
      "minFilter": 9987,
      "wrapS": 10497,
      "wrapT": 10497
    }
  ],
  "scene": 0,
  "scenes": [
    {
      "name": "Sketchfab_Scene",
      "nodes": [
        0
      ]
    }
  ],
  "textures": [
    {
      "sampler": 0,
      "source": 0
    },
    {
      "sampler": 0,
      "source": 1
    }
  ]
}
